<svg height="420px" viewBox="0 0 560 420" width="560px" xmlns="http://www.w3.org/2000/svg" xmlns:xlink="http://www.w3.org/1999/xlink">

<title>Gnuplot</title>
<desc>Produced by GNUPLOT 5.2 patchlevel 4 </desc>

<g id="gnuplot_canvas">

<rect fill="#ffffff" height="420" width="560" x="0" y="0"/>
<defs>

	<circle id="gpDot" r="0.5" stroke="currentColor" stroke-width="0.5"/>
	<path d="M-1,0 h2 M0,-1 v2" id="gpPt0" stroke="currentColor" stroke-width="0.357"/>
	<path d="M-1,-1 L1,1 M1,-1 L-1,1" id="gpPt1" stroke="currentColor" stroke-width="0.357"/>
	<path d="M-1,0 L1,0 M0,-1 L0,1 M-1,-1 L1,1 M-1,1 L1,-1" id="gpPt2" stroke="currentColor" stroke-width="0.357"/>
	<rect height="2" id="gpPt3" stroke="currentColor" stroke-width="0.357" width="2" x="-1" y="-1"/>
	<rect fill="currentColor" height="2" id="gpPt4" stroke="currentColor" stroke-width="0.357" width="2" x="-1" y="-1"/>
	<circle cx="0" cy="0" id="gpPt5" r="1" stroke="currentColor" stroke-width="0.357"/>
	<use fill="currentColor" id="gpPt6" stroke="none" xlink:href="#gpPt5"/>
	<path d="M0,-1.33 L-1.33,0.67 L1.33,0.67 z" id="gpPt7" stroke="currentColor" stroke-width="0.357"/>
	<use fill="currentColor" id="gpPt8" stroke="none" xlink:href="#gpPt7"/>
	<use id="gpPt9" stroke="currentColor" transform="rotate(180)" xlink:href="#gpPt7"/>
	<use fill="currentColor" id="gpPt10" stroke="none" xlink:href="#gpPt9"/>
	<use id="gpPt11" stroke="currentColor" transform="rotate(45)" xlink:href="#gpPt3"/>
	<use fill="currentColor" id="gpPt12" stroke="none" xlink:href="#gpPt11"/>
	<path d="M0,1.330 L1.265,0.411 L0.782,-1.067 L-0.782,-1.076 L-1.265,0.411 z" id="gpPt13" stroke="currentColor" stroke-width="0.357"/>
	<use fill="currentColor" id="gpPt14" stroke="none" xlink:href="#gpPt13"/>
	<filter filterUnits="objectBoundingBox" height="1" id="textbox" width="1" x="0" y="0">
	  <feFlood flood-color="#FFFFFF" flood-opacity="1" result="bgnd"/>
	  <feComposite in="SourceGraphic" in2="bgnd" operator="atop"/>
	</filter>
	<filter filterUnits="objectBoundingBox" height="1" id="greybox" width="1" x="0" y="0">
	  <feFlood flood-color="lightgrey" flood-opacity="1" result="grey"/>
	  <feComposite in="SourceGraphic" in2="grey" operator="atop"/>
	</filter>
</defs>
<g color="#FFFFFF" fill="none" stroke="currentColor" stroke-linecap="butt" stroke-linejoin="miter" stroke-width="1.00">
</g>
<g color="black" fill="none" stroke="currentColor" stroke-linecap="butt" stroke-linejoin="miter" stroke-width="1.00">
	<g shape-rendering="crispEdges" stroke="none">
		<polygon fill="rgb(255, 255, 255)" points="34.6,384.2 544.2,384.2 544.2,11.4 34.6,11.4 "/>
	</g>
</g>
<g color="black" fill="none" stroke="currentColor" stroke-linecap="butt" stroke-linejoin="miter" stroke-width="1.00">
	<path d="M34.6,384.2 L42.4,384.2 M544.3,384.2 L536.5,384.2  " stroke="rgb(  0,   0,   0)"/>	<g fill="rgb(38,38,38)" font-family="Arial" font-size="10.00" stroke="none" text-anchor="end" transform="translate(29.4,387.5)">
		<text><tspan font-family="Arial">-5</tspan></text>
	</g>
</g>
<g color="black" fill="none" stroke="currentColor" stroke-linecap="butt" stroke-linejoin="miter" stroke-width="1.00">
	<path d="M34.6,322.0 L42.4,322.0 M544.3,322.0 L536.5,322.0  " stroke="rgb(  0,   0,   0)"/>	<g fill="rgb(38,38,38)" font-family="Arial" font-size="10.00" stroke="none" text-anchor="end" transform="translate(29.4,325.3)">
		<text><tspan font-family="Arial">0</tspan></text>
	</g>
</g>
<g color="black" fill="none" stroke="currentColor" stroke-linecap="butt" stroke-linejoin="miter" stroke-width="1.00">
	<path d="M34.6,259.9 L42.4,259.9 M544.3,259.9 L536.5,259.9  " stroke="rgb(  0,   0,   0)"/>	<g fill="rgb(38,38,38)" font-family="Arial" font-size="10.00" stroke="none" text-anchor="end" transform="translate(29.4,263.2)">
		<text><tspan font-family="Arial">5</tspan></text>
	</g>
</g>
<g color="black" fill="none" stroke="currentColor" stroke-linecap="butt" stroke-linejoin="miter" stroke-width="1.00">
	<path d="M34.6,197.7 L42.4,197.7 M544.3,197.7 L536.5,197.7  " stroke="rgb(  0,   0,   0)"/>	<g fill="rgb(38,38,38)" font-family="Arial" font-size="10.00" stroke="none" text-anchor="end" transform="translate(29.4,201.0)">
		<text><tspan font-family="Arial">10</tspan></text>
	</g>
</g>
<g color="black" fill="none" stroke="currentColor" stroke-linecap="butt" stroke-linejoin="miter" stroke-width="1.00">
	<path d="M34.6,135.6 L42.4,135.6 M544.3,135.6 L536.5,135.6  " stroke="rgb(  0,   0,   0)"/>	<g fill="rgb(38,38,38)" font-family="Arial" font-size="10.00" stroke="none" text-anchor="end" transform="translate(29.4,138.9)">
		<text><tspan font-family="Arial">15</tspan></text>
	</g>
</g>
<g color="black" fill="none" stroke="currentColor" stroke-linecap="butt" stroke-linejoin="miter" stroke-width="1.00">
	<path d="M34.6,73.4 L42.4,73.4 M544.3,73.4 L536.5,73.4  " stroke="rgb(  0,   0,   0)"/>	<g fill="rgb(38,38,38)" font-family="Arial" font-size="10.00" stroke="none" text-anchor="end" transform="translate(29.4,76.7)">
		<text><tspan font-family="Arial">20</tspan></text>
	</g>
</g>
<g color="black" fill="none" stroke="currentColor" stroke-linecap="butt" stroke-linejoin="miter" stroke-width="1.00">
	<path d="M34.6,11.3 L42.4,11.3 M544.3,11.3 L536.5,11.3  " stroke="rgb(  0,   0,   0)"/>	<g fill="rgb(38,38,38)" font-family="Arial" font-size="10.00" stroke="none" text-anchor="end" transform="translate(29.4,14.6)">
		<text><tspan font-family="Arial">25</tspan></text>
	</g>
</g>
<g color="black" fill="none" stroke="currentColor" stroke-linecap="butt" stroke-linejoin="miter" stroke-width="1.00">
	<path d="M34.6,384.2 L34.6,376.4 M34.6,11.3 L34.6,19.1  " stroke="rgb(  0,   0,   0)"/>	<g fill="rgb(38,38,38)" font-family="Arial" font-size="10.00" stroke="none" text-anchor="middle" transform="translate(34.6,398.7)">
		<text><tspan font-family="Arial">5</tspan></text>
	</g>
</g>
<g color="black" fill="none" stroke="currentColor" stroke-linecap="butt" stroke-linejoin="miter" stroke-width="1.00">
	<path d="M162.0,384.2 L162.0,376.4 M162.0,11.3 L162.0,19.1  " stroke="rgb(  0,   0,   0)"/>	<g fill="rgb(38,38,38)" font-family="Arial" font-size="10.00" stroke="none" text-anchor="middle" transform="translate(162.0,398.7)">
		<text><tspan font-family="Arial">10</tspan></text>
	</g>
</g>
<g color="black" fill="none" stroke="currentColor" stroke-linecap="butt" stroke-linejoin="miter" stroke-width="1.00">
	<path d="M289.5,384.2 L289.5,376.4 M289.5,11.3 L289.5,19.1  " stroke="rgb(  0,   0,   0)"/>	<g fill="rgb(38,38,38)" font-family="Arial" font-size="10.00" stroke="none" text-anchor="middle" transform="translate(289.5,398.7)">
		<text><tspan font-family="Arial">15</tspan></text>
	</g>
</g>
<g color="black" fill="none" stroke="currentColor" stroke-linecap="butt" stroke-linejoin="miter" stroke-width="1.00">
	<path d="M416.9,384.2 L416.9,376.4 M416.9,11.3 L416.9,19.1  " stroke="rgb(  0,   0,   0)"/>	<g fill="rgb(38,38,38)" font-family="Arial" font-size="10.00" stroke="none" text-anchor="middle" transform="translate(416.9,398.7)">
		<text><tspan font-family="Arial">20</tspan></text>
	</g>
</g>
<g color="black" fill="none" stroke="currentColor" stroke-linecap="butt" stroke-linejoin="miter" stroke-width="1.00">
	<path d="M544.3,384.2 L544.3,376.4 M544.3,11.3 L544.3,19.1  " stroke="rgb(  0,   0,   0)"/>	<g fill="rgb(38,38,38)" font-family="Arial" font-size="10.00" stroke="none" text-anchor="middle" transform="translate(544.3,398.7)">
		<text><tspan font-family="Arial">25</tspan></text>
	</g>
</g>
<g color="black" fill="none" stroke="currentColor" stroke-linecap="butt" stroke-linejoin="miter" stroke-width="1.00">
</g>
<g color="black" fill="none" stroke="currentColor" stroke-linecap="butt" stroke-linejoin="miter" stroke-width="1.00">
	<g fill="rgb(38,38,38)" font-family="Arial" font-size="11.00" stroke="none" text-anchor="middle" transform="translate(11.3,197.8) rotate(-90)">
		<text><tspan font-family="Arial">Profit in $10,000s</tspan></text>
	</g>
</g>
<g color="black" fill="none" stroke="currentColor" stroke-linecap="butt" stroke-linejoin="miter" stroke-width="1.00">
	<g fill="rgb(38,38,38)" font-family="Arial" font-size="11.00" stroke="none" text-anchor="middle" transform="translate(289.4,415.8)">
		<text><tspan font-family="Arial">Populationof City in 10,000s</tspan></text>
	</g>
</g>
<g color="black" fill="none" stroke="currentColor" stroke-linecap="butt" stroke-linejoin="miter" stroke-width="1.00">
</g>
	<g id="gnuplot_plot_1a"><title>gnuplot_plot_1a</title>
<g color="#FFFFFF" fill="none" stroke="currentColor" stroke-linecap="butt" stroke-linejoin="miter" stroke-width="0.50">
</g>
<g color="black" fill="none" stroke="currentColor" stroke-linecap="butt" stroke-linejoin="miter" stroke-width="0.50">
	<use color="rgb(255,   0,   0)" transform="translate(62.9,103.4) scale(9.33)" xlink:href="#gpPt1"/>
	<use color="rgb(255,   0,   0)" transform="translate(48.0,208.6) scale(9.33)" xlink:href="#gpPt1"/>
	<use color="rgb(255,   0,   0)" transform="translate(124.3,152.2) scale(9.33)" xlink:href="#gpPt1"/>
	<use color="rgb(255,   0,   0)" transform="translate(85.7,174.7) scale(9.33)" xlink:href="#gpPt1"/>
	<use color="rgb(255,   0,   0)" transform="translate(56.5,237.2) scale(9.33)" xlink:href="#gpPt1"/>
	<use color="rgb(255,   0,   0)" transform="translate(120.8,174.3) scale(9.33)" xlink:href="#gpPt1"/>
	<use color="rgb(255,   0,   0)" transform="translate(97.7,268.0) scale(9.33)" xlink:href="#gpPt1"/>
	<use color="rgb(255,   0,   0)" transform="translate(125.8,172.9) scale(9.33)" xlink:href="#gpPt1"/>
	<use color="rgb(255,   0,   0)" transform="translate(72.5,240.0) scale(9.33)" xlink:href="#gpPt1"/>
	<use color="rgb(255,   0,   0)" transform="translate(36.0,274.6) scale(9.33)" xlink:href="#gpPt1"/>
	<use color="rgb(255,   0,   0)" transform="translate(52.7,281.6) scale(9.33)" xlink:href="#gpPt1"/>
	<use color="rgb(255,   0,   0)" transform="translate(268.1,129.3) scale(9.33)" xlink:href="#gpPt1"/>
	<use color="rgb(255,   0,   0)" transform="translate(53.3,282.8) scale(9.33)" xlink:href="#gpPt1"/>
	<use color="rgb(255,   0,   0)" transform="translate(121.5,232.2) scale(9.33)" xlink:href="#gpPt1"/>
	<use color="rgb(255,   0,   0)" transform="translate(50.9,313.1) scale(9.33)" xlink:href="#gpPt1"/>
	<use color="rgb(255,   0,   0)" transform="translate(44.3,278.4) scale(9.33)" xlink:href="#gpPt1"/>
	<use color="rgb(255,   0,   0)" transform="translate(69.4,256.1) scale(9.33)" xlink:href="#gpPt1"/>
	<use color="rgb(255,   0,   0)" transform="translate(37.9,315.1) scale(9.33)" xlink:href="#gpPt1"/>
	<use color="rgb(255,   0,   0)" transform="translate(71.0,276.7) scale(9.33)" xlink:href="#gpPt1"/>
	<use color="rgb(255,   0,   0)" transform="translate(87.4,255.1) scale(9.33)" xlink:href="#gpPt1"/>
	<use color="rgb(255,   0,   0)" transform="translate(64.9,283.0) scale(9.33)" xlink:href="#gpPt1"/>
	<use color="rgb(255,   0,   0)" transform="translate(423.8,51.5) scale(9.33)" xlink:href="#gpPt1"/>
	<use color="rgb(255,   0,   0)" transform="translate(47.1,269.1) scale(9.33)" xlink:href="#gpPt1"/>
	<use color="rgb(255,   0,   0)" transform="translate(68.4,257.6) scale(9.33)" xlink:href="#gpPt1"/>
	<use color="rgb(255,   0,   0)" transform="translate(49.0,283.7) scale(9.33)" xlink:href="#gpPt1"/>
	<use color="rgb(255,   0,   0)" transform="translate(390.0,40.7) scale(9.33)" xlink:href="#gpPt1"/>
	<use color="rgb(255,   0,   0)" transform="translate(234.1,154.2) scale(9.33)" xlink:href="#gpPt1"/>
	<use color="rgb(255,   0,   0)" transform="translate(186.4,234.5) scale(9.33)" xlink:href="#gpPt1"/>
	<use color="rgb(255,   0,   0)" transform="translate(243.0,139.4) scale(9.33)" xlink:href="#gpPt1"/>
	<use color="rgb(255,   0,   0)" transform="translate(473.0,21.9) scale(9.33)" xlink:href="#gpPt1"/>
	<use color="rgb(255,   0,   0)" transform="translate(41.0,337.2) scale(9.33)" xlink:href="#gpPt1"/>
	<use color="rgb(255,   0,   0)" transform="translate(75.1,247.5) scale(9.33)" xlink:href="#gpPt1"/>
	<use color="rgb(255,   0,   0)" transform="translate(142.9,171.2) scale(9.33)" xlink:href="#gpPt1"/>
	<use color="rgb(255,   0,   0)" transform="translate(57.3,299.1) scale(9.33)" xlink:href="#gpPt1"/>
	<use color="rgb(255,   0,   0)" transform="translate(116.4,240.7) scale(9.33)" xlink:href="#gpPt1"/>
	<use color="rgb(255,   0,   0)" transform="translate(109.4,265.3) scale(9.33)" xlink:href="#gpPt1"/>
	<use color="rgb(255,   0,   0)" transform="translate(113.5,270.9) scale(9.33)" xlink:href="#gpPt1"/>
	<use color="rgb(255,   0,   0)" transform="translate(50.1,279.9) scale(9.33)" xlink:href="#gpPt1"/>
	<use color="rgb(255,   0,   0)" transform="translate(234.3,196.3) scale(9.33)" xlink:href="#gpPt1"/>
	<use color="rgb(255,   0,   0)" transform="translate(69.1,253.7) scale(9.33)" xlink:href="#gpPt1"/>
	<use color="rgb(255,   0,   0)" transform="translate(45.0,315.1) scale(9.33)" xlink:href="#gpPt1"/>
	<use color="rgb(255,   0,   0)" transform="translate(82.6,273.4) scale(9.33)" xlink:href="#gpPt1"/>
	<use color="rgb(255,   0,   0)" transform="translate(205.6,255.1) scale(9.33)" xlink:href="#gpPt1"/>
	<use color="rgb(255,   0,   0)" transform="translate(54.3,291.7) scale(9.33)" xlink:href="#gpPt1"/>
	<use color="rgb(255,   0,   0)" transform="translate(106.6,238.4) scale(9.33)" xlink:href="#gpPt1"/>
	<use color="rgb(255,   0,   0)" transform="translate(87.9,309.0) scale(9.33)" xlink:href="#gpPt1"/>
	<use color="rgb(255,   0,   0)" transform="translate(36.4,258.2) scale(9.33)" xlink:href="#gpPt1"/>
	<use color="rgb(255,   0,   0)" transform="translate(55.0,299.1) scale(9.33)" xlink:href="#gpPt1"/>
	<use color="rgb(255,   0,   0)" transform="translate(205.3,222.6) scale(9.33)" xlink:href="#gpPt1"/>
	<use color="rgb(255,   0,   0)" transform="translate(48.4,309.4) scale(9.33)" xlink:href="#gpPt1"/>
	<use color="rgb(255,   0,   0)" transform="translate(99.3,238.1) scale(9.33)" xlink:href="#gpPt1"/>
	<use color="rgb(255,   0,   0)" transform="translate(42.4,299.2) scale(9.33)" xlink:href="#gpPt1"/>
	<use color="rgb(255,   0,   0)" transform="translate(96.4,268.7) scale(9.33)" xlink:href="#gpPt1"/>
	<use color="rgb(255,   0,   0)" transform="translate(100.9,259.9) scale(9.33)" xlink:href="#gpPt1"/>
	<use color="rgb(255,   0,   0)" transform="translate(68.6,304.4) scale(9.33)" xlink:href="#gpPt1"/>
	<use color="rgb(255,   0,   0)" transform="translate(69.2,339.7) scale(9.33)" xlink:href="#gpPt1"/>
	<use color="rgb(255,   0,   0)" transform="translate(67.1,291.3) scale(9.33)" xlink:href="#gpPt1"/>
	<use color="rgb(255,   0,   0)" transform="translate(50.9,264.8) scale(9.33)" xlink:href="#gpPt1"/>
	<use color="rgb(255,   0,   0)" transform="translate(144.4,272.8) scale(9.33)" xlink:href="#gpPt1"/>
	<use color="rgb(255,   0,   0)" transform="translate(148.1,254.8) scale(9.33)" xlink:href="#gpPt1"/>
	<use color="rgb(255,   0,   0)" transform="translate(132.1,257.8) scale(9.33)" xlink:href="#gpPt1"/>
	<use color="rgb(255,   0,   0)" transform="translate(39.2,331.3) scale(9.33)" xlink:href="#gpPt1"/>
	<use color="rgb(255,   0,   0)" transform="translate(449.5,99.2) scale(9.33)" xlink:href="#gpPt1"/>
	<use color="rgb(255,   0,   0)" transform="translate(287.1,172.2) scale(9.33)" xlink:href="#gpPt1"/>
	<use color="rgb(255,   0,   0)" transform="translate(390.3,110.1) scale(9.33)" xlink:href="#gpPt1"/>
	<use color="rgb(255,   0,   0)" transform="translate(91.1,261.3) scale(9.33)" xlink:href="#gpPt1"/>
	<use color="rgb(255,   0,   0)" transform="translate(118.6,250.6) scale(9.33)" xlink:href="#gpPt1"/>
	<use color="rgb(255,   0,   0)" transform="translate(168.0,225.4) scale(9.33)" xlink:href="#gpPt1"/>
	<use color="rgb(255,   0,   0)" transform="translate(47.3,309.4) scale(9.33)" xlink:href="#gpPt1"/>
	<use color="rgb(255,   0,   0)" transform="translate(425.6,61.1) scale(9.33)" xlink:href="#gpPt1"/>
	<use color="rgb(255,   0,   0)" transform="translate(165.5,239.0) scale(9.33)" xlink:href="#gpPt1"/>
	<use color="rgb(255,   0,   0)" transform="translate(94.1,272.0) scale(9.33)" xlink:href="#gpPt1"/>
	<use color="rgb(255,   0,   0)" transform="translate(60.2,306.2) scale(9.33)" xlink:href="#gpPt1"/>
	<use color="rgb(255,   0,   0)" transform="translate(91.3,280.5) scale(9.33)" xlink:href="#gpPt1"/>
	<use color="rgb(255,   0,   0)" transform="translate(35.3,355.4) scale(9.33)" xlink:href="#gpPt1"/>
	<use color="rgb(255,   0,   0)" transform="translate(74.0,318.4) scale(9.33)" xlink:href="#gpPt1"/>
	<use color="rgb(255,   0,   0)" transform="translate(99.3,273.8) scale(9.33)" xlink:href="#gpPt1"/>
	<use color="rgb(255,   0,   0)" transform="translate(35.5,251.2) scale(9.33)" xlink:href="#gpPt1"/>
	<use color="rgb(255,   0,   0)" transform="translate(169.0,238.1) scale(9.33)" xlink:href="#gpPt1"/>
	<use color="rgb(255,   0,   0)" transform="translate(37.3,296.5) scale(9.33)" xlink:href="#gpPt1"/>
	<use color="rgb(255,   0,   0)" transform="translate(53.2,316.1) scale(9.33)" xlink:href="#gpPt1"/>
	<use color="rgb(255,   0,   0)" transform="translate(39.4,319.5) scale(9.33)" xlink:href="#gpPt1"/>
	<use color="rgb(255,   0,   0)" transform="translate(69.2,313.6) scale(9.33)" xlink:href="#gpPt1"/>
	<use color="rgb(255,   0,   0)" transform="translate(156.1,228.3) scale(9.33)" xlink:href="#gpPt1"/>
	<use color="rgb(255,   0,   0)" transform="translate(73.2,255.6) scale(9.33)" xlink:href="#gpPt1"/>
	<use color="rgb(255,   0,   0)" transform="translate(124.2,269.3) scale(9.33)" xlink:href="#gpPt1"/>
	<use color="rgb(255,   0,   0)" transform="translate(141.1,237.5) scale(9.33)" xlink:href="#gpPt1"/>
	<use color="rgb(255,   0,   0)" transform="translate(60.1,310.5) scale(9.33)" xlink:href="#gpPt1"/>
	<use color="rgb(255,   0,   0)" transform="translate(47.9,320.2) scale(9.33)" xlink:href="#gpPt1"/>
	<use color="rgb(255,   0,   0)" transform="translate(36.1,287.0) scale(9.33)" xlink:href="#gpPt1"/>
	<use color="rgb(255,   0,   0)" transform="translate(52.6,299.1) scale(9.33)" xlink:href="#gpPt1"/>
	<use color="rgb(255,   0,   0)" transform="translate(101.8,268.7) scale(9.33)" xlink:href="#gpPt1"/>
	<use color="rgb(255,   0,   0)" transform="translate(56.8,232.5) scale(9.33)" xlink:href="#gpPt1"/>
	<use color="rgb(255,   0,   0)" transform="translate(42.4,297.4) scale(9.33)" xlink:href="#gpPt1"/>
	<use color="rgb(255,   0,   0)" transform="translate(118.5,320.3) scale(9.33)" xlink:href="#gpPt1"/>
	<use color="rgb(255,   0,   0)" transform="translate(248.5,209.5) scale(9.33)" xlink:href="#gpPt1"/>
	<use color="rgb(255,   0,   0)" transform="translate(45.7,314.4) scale(9.33)" xlink:href="#gpPt1"/>
</g>
	</g>
<g color="#FFFFFF" fill="none" stroke="rgb(255,   0,   0)" stroke-linecap="butt" stroke-linejoin="miter" stroke-width="2.00">
</g>
<g color="black" fill="none" stroke="currentColor" stroke-linecap="butt" stroke-linejoin="miter" stroke-width="2.00">
</g>
<g color="black" fill="none" stroke="black" stroke-linecap="butt" stroke-linejoin="miter" stroke-width="0.50">
	<path d="M34.6,384.2 L544.3,384.2 M34.6,11.3 L544.3,11.3 M34.6,384.2 L34.6,11.3 M544.3,384.2 L544.3,11.3    " stroke="rgb( 38,  38,  38)"/></g>
<g color="black" fill="none" stroke="rgb( 38,  38,  38)" stroke-linecap="butt" stroke-linejoin="miter" stroke-width="1.00">
</g>
<g color="black" fill="none" stroke="currentColor" stroke-linecap="butt" stroke-linejoin="miter" stroke-width="1.00">
</g>
</g>
</svg>