<svg height="420px" viewBox="0 0 560 420" width="560px" xmlns="http://www.w3.org/2000/svg" xmlns:xlink="http://www.w3.org/1999/xlink">

<title>Gnuplot</title>
<desc>Produced by GNUPLOT 5.2 patchlevel 4 </desc>

<g id="gnuplot_canvas">

<rect fill="#ffffff" height="420" width="560" x="0" y="0"/>
<defs>

	<circle id="gpDot" r="0.5" stroke="currentColor" stroke-width="0.5"/>
	<path d="M-1,0 h2 M0,-1 v2" id="gpPt0" stroke="currentColor" stroke-width="0.357"/>
	<path d="M-1,-1 L1,1 M1,-1 L-1,1" id="gpPt1" stroke="currentColor" stroke-width="0.357"/>
	<path d="M-1,0 L1,0 M0,-1 L0,1 M-1,-1 L1,1 M-1,1 L1,-1" id="gpPt2" stroke="currentColor" stroke-width="0.357"/>
	<rect height="2" id="gpPt3" stroke="currentColor" stroke-width="0.357" width="2" x="-1" y="-1"/>
	<rect fill="currentColor" height="2" id="gpPt4" stroke="currentColor" stroke-width="0.357" width="2" x="-1" y="-1"/>
	<circle cx="0" cy="0" id="gpPt5" r="1" stroke="currentColor" stroke-width="0.357"/>
	<use fill="currentColor" id="gpPt6" stroke="none" xlink:href="#gpPt5"/>
	<path d="M0,-1.33 L-1.33,0.67 L1.33,0.67 z" id="gpPt7" stroke="currentColor" stroke-width="0.357"/>
	<use fill="currentColor" id="gpPt8" stroke="none" xlink:href="#gpPt7"/>
	<use id="gpPt9" stroke="currentColor" transform="rotate(180)" xlink:href="#gpPt7"/>
	<use fill="currentColor" id="gpPt10" stroke="none" xlink:href="#gpPt9"/>
	<use id="gpPt11" stroke="currentColor" transform="rotate(45)" xlink:href="#gpPt3"/>
	<use fill="currentColor" id="gpPt12" stroke="none" xlink:href="#gpPt11"/>
	<path d="M0,1.330 L1.265,0.411 L0.782,-1.067 L-0.782,-1.076 L-1.265,0.411 z" id="gpPt13" stroke="currentColor" stroke-width="0.357"/>
	<use fill="currentColor" id="gpPt14" stroke="none" xlink:href="#gpPt13"/>
	<filter filterUnits="objectBoundingBox" height="1" id="textbox" width="1" x="0" y="0">
	  <feFlood flood-color="#FFFFFF" flood-opacity="1" result="bgnd"/>
	  <feComposite in="SourceGraphic" in2="bgnd" operator="atop"/>
	</filter>
	<filter filterUnits="objectBoundingBox" height="1" id="greybox" width="1" x="0" y="0">
	  <feFlood flood-color="lightgrey" flood-opacity="1" result="grey"/>
	  <feComposite in="SourceGraphic" in2="grey" operator="atop"/>
	</filter>
</defs>
<g color="#FFFFFF" fill="none" stroke="currentColor" stroke-linecap="butt" stroke-linejoin="miter" stroke-width="1.00">
</g>
<g color="black" fill="none" stroke="currentColor" stroke-linecap="butt" stroke-linejoin="miter" stroke-width="1.00">
	<g shape-rendering="crispEdges" stroke="none">
		<polygon fill="rgb(255, 255, 255)" points="50.2,384.2 544.2,384.2 544.2,11.4 50.2,11.4 "/>
	</g>
</g>
<g color="black" fill="none" stroke="currentColor" stroke-linecap="butt" stroke-linejoin="miter" stroke-width="1.00">
	<path d="M50.2,384.2 L58.0,384.2 M544.3,384.2 L536.5,384.2  " stroke="rgb(  0,   0,   0)"/>	<g fill="rgb(38,38,38)" font-family="Arial" font-size="10.00" stroke="none" text-anchor="end" transform="translate(45.0,387.5)">
		<text><tspan font-family="Arial">0</tspan></text>
	</g>
</g>
<g color="black" fill="none" stroke="currentColor" stroke-linecap="butt" stroke-linejoin="miter" stroke-width="1.00">
	<path d="M50.2,330.9 L58.0,330.9 M544.3,330.9 L536.5,330.9  " stroke="rgb(  0,   0,   0)"/>	<g fill="rgb(38,38,38)" font-family="Arial" font-size="10.00" stroke="none" text-anchor="end" transform="translate(45.0,334.2)">
		<text><tspan font-family="Arial">1e+10</tspan></text>
	</g>
</g>
<g color="black" fill="none" stroke="currentColor" stroke-linecap="butt" stroke-linejoin="miter" stroke-width="1.00">
	<path d="M50.2,277.7 L58.0,277.7 M544.3,277.7 L536.5,277.7  " stroke="rgb(  0,   0,   0)"/>	<g fill="rgb(38,38,38)" font-family="Arial" font-size="10.00" stroke="none" text-anchor="end" transform="translate(45.0,281.0)">
		<text><tspan font-family="Arial">2e+10</tspan></text>
	</g>
</g>
<g color="black" fill="none" stroke="currentColor" stroke-linecap="butt" stroke-linejoin="miter" stroke-width="1.00">
	<path d="M50.2,224.4 L58.0,224.4 M544.3,224.4 L536.5,224.4  " stroke="rgb(  0,   0,   0)"/>	<g fill="rgb(38,38,38)" font-family="Arial" font-size="10.00" stroke="none" text-anchor="end" transform="translate(45.0,227.7)">
		<text><tspan font-family="Arial">3e+10</tspan></text>
	</g>
</g>
<g color="black" fill="none" stroke="currentColor" stroke-linecap="butt" stroke-linejoin="miter" stroke-width="1.00">
	<path d="M50.2,171.1 L58.0,171.1 M544.3,171.1 L536.5,171.1  " stroke="rgb(  0,   0,   0)"/>	<g fill="rgb(38,38,38)" font-family="Arial" font-size="10.00" stroke="none" text-anchor="end" transform="translate(45.0,174.4)">
		<text><tspan font-family="Arial">4e+10</tspan></text>
	</g>
</g>
<g color="black" fill="none" stroke="currentColor" stroke-linecap="butt" stroke-linejoin="miter" stroke-width="1.00">
	<path d="M50.2,117.8 L58.0,117.8 M544.3,117.8 L536.5,117.8  " stroke="rgb(  0,   0,   0)"/>	<g fill="rgb(38,38,38)" font-family="Arial" font-size="10.00" stroke="none" text-anchor="end" transform="translate(45.0,121.1)">
		<text><tspan font-family="Arial">5e+10</tspan></text>
	</g>
</g>
<g color="black" fill="none" stroke="currentColor" stroke-linecap="butt" stroke-linejoin="miter" stroke-width="1.00">
	<path d="M50.2,64.6 L58.0,64.6 M544.3,64.6 L536.5,64.6  " stroke="rgb(  0,   0,   0)"/>	<g fill="rgb(38,38,38)" font-family="Arial" font-size="10.00" stroke="none" text-anchor="end" transform="translate(45.0,67.9)">
		<text><tspan font-family="Arial">6e+10</tspan></text>
	</g>
</g>
<g color="black" fill="none" stroke="currentColor" stroke-linecap="butt" stroke-linejoin="miter" stroke-width="1.00">
	<path d="M50.2,11.3 L58.0,11.3 M544.3,11.3 L536.5,11.3  " stroke="rgb(  0,   0,   0)"/>	<g fill="rgb(38,38,38)" font-family="Arial" font-size="10.00" stroke="none" text-anchor="end" transform="translate(45.0,14.6)">
		<text><tspan font-family="Arial">7e+10</tspan></text>
	</g>
</g>
<g color="black" fill="none" stroke="currentColor" stroke-linecap="butt" stroke-linejoin="miter" stroke-width="1.00">
	<path d="M50.2,384.2 L50.2,376.4 M50.2,11.3 L50.2,19.1  " stroke="rgb(  0,   0,   0)"/>	<g fill="rgb(38,38,38)" font-family="Arial" font-size="10.00" stroke="none" text-anchor="middle" transform="translate(50.2,398.7)">
		<text><tspan font-family="Arial">0</tspan></text>
	</g>
</g>
<g color="black" fill="none" stroke="currentColor" stroke-linecap="butt" stroke-linejoin="miter" stroke-width="1.00">
	<path d="M149.0,384.2 L149.0,376.4 M149.0,11.3 L149.0,19.1  " stroke="rgb(  0,   0,   0)"/>	<g fill="rgb(38,38,38)" font-family="Arial" font-size="10.00" stroke="none" text-anchor="middle" transform="translate(149.0,398.7)">
		<text><tspan font-family="Arial">100</tspan></text>
	</g>
</g>
<g color="black" fill="none" stroke="currentColor" stroke-linecap="butt" stroke-linejoin="miter" stroke-width="1.00">
	<path d="M247.8,384.2 L247.8,376.4 M247.8,11.3 L247.8,19.1  " stroke="rgb(  0,   0,   0)"/>	<g fill="rgb(38,38,38)" font-family="Arial" font-size="10.00" stroke="none" text-anchor="middle" transform="translate(247.8,398.7)">
		<text><tspan font-family="Arial">200</tspan></text>
	</g>
</g>
<g color="black" fill="none" stroke="currentColor" stroke-linecap="butt" stroke-linejoin="miter" stroke-width="1.00">
	<path d="M346.7,384.2 L346.7,376.4 M346.7,11.3 L346.7,19.1  " stroke="rgb(  0,   0,   0)"/>	<g fill="rgb(38,38,38)" font-family="Arial" font-size="10.00" stroke="none" text-anchor="middle" transform="translate(346.7,398.7)">
		<text><tspan font-family="Arial">300</tspan></text>
	</g>
</g>
<g color="black" fill="none" stroke="currentColor" stroke-linecap="butt" stroke-linejoin="miter" stroke-width="1.00">
	<path d="M445.5,384.2 L445.5,376.4 M445.5,11.3 L445.5,19.1  " stroke="rgb(  0,   0,   0)"/>	<g fill="rgb(38,38,38)" font-family="Arial" font-size="10.00" stroke="none" text-anchor="middle" transform="translate(445.5,398.7)">
		<text><tspan font-family="Arial">400</tspan></text>
	</g>
</g>
<g color="black" fill="none" stroke="currentColor" stroke-linecap="butt" stroke-linejoin="miter" stroke-width="1.00">
	<path d="M544.3,384.2 L544.3,376.4 M544.3,11.3 L544.3,19.1  " stroke="rgb(  0,   0,   0)"/>	<g fill="rgb(38,38,38)" font-family="Arial" font-size="10.00" stroke="none" text-anchor="middle" transform="translate(544.3,398.7)">
		<text><tspan font-family="Arial">500</tspan></text>
	</g>
</g>
<g color="black" fill="none" stroke="currentColor" stroke-linecap="butt" stroke-linejoin="miter" stroke-width="1.00">
</g>
<g color="black" fill="none" stroke="currentColor" stroke-linecap="butt" stroke-linejoin="miter" stroke-width="1.00">
	<g fill="rgb(38,38,38)" font-family="Arial" font-size="11.00" stroke="none" text-anchor="middle" transform="translate(11.3,197.8) rotate(-90)">
		<text><tspan font-family="Arial">Cost J</tspan></text>
	</g>
</g>
<g color="black" fill="none" stroke="currentColor" stroke-linecap="butt" stroke-linejoin="miter" stroke-width="1.00">
	<g fill="rgb(38,38,38)" font-family="Arial" font-size="11.00" stroke="none" text-anchor="middle" transform="translate(297.2,415.8)">
		<text><tspan font-family="Arial">Number of iterations</tspan></text>
	</g>
</g>
<g color="black" fill="none" stroke="currentColor" stroke-linecap="butt" stroke-linejoin="miter" stroke-width="1.00">
</g>
	<g id="gnuplot_plot_1a"><title>gnuplot_plot_1a</title>
<g color="#FFFFFF" fill="none" stroke="currentColor" stroke-linecap="butt" stroke-linejoin="miter" stroke-width="2.00">
</g>
<g color="black" fill="none" stroke="currentColor" stroke-linecap="butt" stroke-linejoin="miter" stroke-width="2.00">
	<path d="M51.2,48.5 L52.2,61.6 L53.2,74.2 L54.2,86.2 L55.1,97.8 L56.1,108.8 L57.1,119.5 L58.1,129.7   L59.1,139.4 L60.1,148.8 L61.1,157.8 L62.1,166.4 L63.0,174.7 L64.0,182.6 L65.0,190.2 L66.0,197.5   L67.0,204.5 L68.0,211.2 L69.0,217.6 L70.0,223.8 L71.0,229.7 L71.9,235.4 L72.9,240.9 L73.9,246.1   L74.9,251.1 L75.9,255.9 L76.9,260.6 L77.9,265.0 L78.9,269.3 L79.8,273.4 L80.8,277.3 L81.8,281.0   L82.8,284.7 L83.8,288.1 L84.8,291.5 L85.8,294.7 L86.8,297.7 L87.8,300.7 L88.7,303.5 L89.7,306.2   L90.7,308.8 L91.7,311.3 L92.7,313.7 L93.7,316.0 L94.7,318.2 L95.7,320.4 L96.6,322.4 L97.6,324.4   L98.6,326.3 L99.6,328.1 L100.6,329.8 L101.6,331.5 L102.6,333.1 L103.6,334.6 L104.6,336.1 L105.5,337.5   L106.5,338.9 L107.5,340.2 L108.5,341.5 L109.5,342.7 L110.5,343.8 L111.5,344.9 L112.5,346.0 L113.4,347.0   L114.4,348.0 L115.4,349.0 L116.4,349.9 L117.4,350.8 L118.4,351.6 L119.4,352.4 L120.4,353.2 L121.4,354.0   L122.3,354.7 L123.3,355.4 L124.3,356.0 L125.3,356.7 L126.3,357.3 L127.3,357.9 L128.3,358.5 L129.3,359.0   L130.2,359.5 L131.2,360.0 L132.2,360.5 L133.2,361.0 L134.2,361.4 L135.2,361.9 L136.2,362.3 L137.2,362.7   L138.1,363.1 L139.1,363.4 L140.1,363.8 L141.1,364.1 L142.1,364.5 L143.1,364.8 L144.1,365.1 L145.1,365.4   L146.1,365.7 L147.0,365.9 L148.0,366.2 L149.0,366.4 L150.0,366.7 L151.0,366.9 L152.0,367.1 L153.0,367.4   L154.0,367.6 L154.9,367.8 L155.9,368.0 L156.9,368.1 L157.9,368.3 L158.9,368.5 L159.9,368.7 L160.9,368.8   L161.9,369.0 L162.9,369.1 L163.8,369.3 L164.8,369.4 L165.8,369.5 L166.8,369.7 L167.8,369.8 L168.8,369.9   L169.8,370.0 L170.8,370.1 L171.7,370.2 L172.7,370.3 L173.7,370.4 L174.7,370.5 L175.7,370.6 L176.7,370.7   L177.7,370.8 L178.7,370.9 L179.7,370.9 L180.6,371.0 L181.6,371.1 L182.6,371.2 L183.6,371.2 L184.6,371.3   L185.6,371.4 L186.6,371.4 L187.6,371.5 L188.5,371.5 L189.5,371.6 L190.5,371.6 L191.5,371.7 L192.5,371.7   L193.5,371.8 L194.5,371.8 L195.5,371.9 L196.5,371.9 L197.4,372.0 L198.4,372.0 L199.4,372.0 L200.4,372.1   L201.4,372.1 L202.4,372.2 L203.4,372.2 L204.4,372.2 L205.3,372.2 L206.3,372.3 L207.3,372.3 L208.3,372.3   L209.3,372.4 L210.3,372.4 L211.3,372.4 L212.3,372.4 L213.3,372.5 L214.2,372.5 L215.2,372.5 L216.2,372.5   L217.2,372.6 L218.2,372.6 L219.2,372.6 L220.2,372.6 L221.2,372.6 L222.1,372.7 L223.1,372.7 L224.1,372.7   L225.1,372.7 L226.1,372.7 L227.1,372.7 L228.1,372.8 L229.1,372.8 L230.1,372.8 L231.0,372.8 L232.0,372.8   L233.0,372.8 L234.0,372.8 L235.0,372.8 L236.0,372.9 L237.0,372.9 L238.0,372.9 L238.9,372.9 L239.9,372.9   L240.9,372.9 L241.9,372.9 L242.9,372.9 L243.9,372.9 L244.9,372.9 L245.9,373.0 L246.9,373.0 L247.8,373.0   L248.8,373.0 L249.8,373.0 L250.8,373.0 L251.8,373.0 L252.8,373.0 L253.8,373.0 L254.8,373.0 L255.7,373.0   L256.7,373.0 L257.7,373.0 L258.7,373.0 L259.7,373.1 L260.7,373.1 L261.7,373.1 L262.7,373.1 L263.7,373.1   L264.6,373.1 L265.6,373.1 L266.6,373.1 L267.6,373.1 L268.6,373.1 L269.6,373.1 L270.6,373.1 L271.6,373.1   L272.5,373.1 L273.5,373.1 L274.5,373.1 L275.5,373.1 L276.5,373.1 L277.5,373.1 L278.5,373.1 L279.5,373.1   L280.5,373.1 L281.4,373.2 L282.4,373.2 L283.4,373.2 L284.4,373.2 L285.4,373.2 L286.4,373.2 L287.4,373.2   L288.4,373.2 L289.3,373.2 L290.3,373.2 L291.3,373.2 L292.3,373.2 L293.3,373.2 L294.3,373.2 L295.3,373.2   L296.3,373.2 L297.3,373.2 L298.2,373.2 L299.2,373.2 L300.2,373.2 L301.2,373.2 L302.2,373.2 L303.2,373.2   L304.2,373.2 L305.2,373.2 L306.1,373.2 L307.1,373.2 L308.1,373.2 L309.1,373.2 L310.1,373.2 L311.1,373.2   L312.1,373.2 L313.1,373.2 L314.0,373.2 L315.0,373.2 L316.0,373.2 L317.0,373.2 L318.0,373.2 L319.0,373.2   L320.0,373.2 L321.0,373.2 L322.0,373.2 L322.9,373.2 L323.9,373.2 L324.9,373.2 L325.9,373.2 L326.9,373.2   L327.9,373.3 L328.9,373.3 L329.9,373.3 L330.8,373.3 L331.8,373.3 L332.8,373.3 L333.8,373.3 L334.8,373.3   L335.8,373.3 L336.8,373.3 L337.8,373.3 L338.8,373.3 L339.7,373.3 L340.7,373.3 L341.7,373.3 L342.7,373.3   L343.7,373.3 L344.7,373.3 L345.7,373.3 L346.7,373.3 L347.6,373.3 L348.6,373.3 L349.6,373.3 L350.6,373.3   L351.6,373.3 L352.6,373.3 L353.6,373.3 L354.6,373.3 L355.6,373.3 L356.5,373.3 L357.5,373.3 L358.5,373.3   L359.5,373.3 L360.5,373.3 L361.5,373.3 L362.5,373.3 L363.5,373.3 L364.4,373.3 L365.4,373.3 L366.4,373.3   L367.4,373.3 L368.4,373.3 L369.4,373.3 L370.4,373.3 L371.4,373.3 L372.4,373.3 L373.3,373.3 L374.3,373.3   L375.3,373.3 L376.3,373.3 L377.3,373.3 L378.3,373.3 L379.3,373.3 L380.3,373.3 L381.2,373.3 L382.2,373.3   L383.2,373.3 L384.2,373.3 L385.2,373.3 L386.2,373.3 L387.2,373.3 L388.2,373.3 L389.2,373.3 L390.1,373.3   L391.1,373.3 L392.1,373.3 L393.1,373.3 L394.1,373.3 L395.1,373.3 L396.1,373.3 L397.1,373.3 L398.0,373.3   L399.0,373.3 L400.0,373.3 L401.0,373.3 L402.0,373.3 L403.0,373.3 L404.0,373.3 L405.0,373.3 L406.0,373.3   L406.9,373.3 L407.9,373.3 L408.9,373.3 L409.9,373.3 L410.9,373.3 L411.9,373.3 L412.9,373.3 L413.9,373.3   L414.8,373.3 L415.8,373.3 L416.8,373.3 L417.8,373.3 L418.8,373.3 L419.8,373.3 L420.8,373.3 L421.8,373.3   L422.8,373.3 L423.7,373.3 L424.7,373.3 L425.7,373.3 L426.7,373.3 L427.7,373.3 L428.7,373.3 L429.7,373.3   L430.7,373.3 L431.6,373.3 L432.6,373.3 L433.6,373.3 L434.6,373.3 L435.6,373.3 L436.6,373.3 L437.6,373.3   L438.6,373.3 L439.6,373.3 L440.5,373.3 L441.5,373.3 L442.5,373.3 L443.5,373.3 L444.5,373.3 L445.5,373.3   L446.5,373.3 L447.5,373.3 L448.4,373.3 L449.4,373.3 L450.4,373.3 L451.4,373.3 L452.4,373.3 L453.4,373.3   L454.4,373.3 L455.4,373.3 L456.4,373.3 L457.3,373.3 L458.3,373.3 L459.3,373.3 L460.3,373.3 L461.3,373.3   L462.3,373.3 L463.3,373.3 L464.3,373.3 L465.2,373.3 L466.2,373.3 L467.2,373.3 L468.2,373.3 L469.2,373.3   L470.2,373.3 L471.2,373.3 L472.2,373.3 L473.1,373.3 L474.1,373.3 L475.1,373.3 L476.1,373.3 L477.1,373.3   L478.1,373.3 L479.1,373.3 L480.1,373.3 L481.1,373.3 L482.0,373.3 L483.0,373.3 L484.0,373.3 L485.0,373.3   L486.0,373.3 L487.0,373.3 L488.0,373.3 L489.0,373.3 L489.9,373.3 L490.9,373.3 L491.9,373.3 L492.9,373.3   L493.9,373.3 L494.9,373.3 L495.9,373.3 L496.9,373.3 L497.9,373.3 L498.8,373.3 L499.8,373.3 L500.8,373.3   L501.8,373.3 L502.8,373.3 L503.8,373.3 L504.8,373.3 L505.8,373.3 L506.7,373.3 L507.7,373.3 L508.7,373.3   L509.7,373.3 L510.7,373.3 L511.7,373.3 L512.7,373.3 L513.7,373.3 L514.7,373.3 L515.6,373.3 L516.6,373.3   L517.6,373.3 L518.6,373.3 L519.6,373.3 L520.6,373.3 L521.6,373.3 L522.6,373.3 L523.5,373.3 L524.5,373.3   L525.5,373.3 L526.5,373.3 L527.5,373.3 L528.5,373.3 L529.5,373.3 L530.5,373.3 L531.5,373.3 L532.4,373.3   L533.4,373.3 L534.4,373.3 L535.4,373.3 L536.4,373.3 L537.4,373.3 L538.4,373.3 L539.4,373.3 L540.3,373.3   L541.3,373.3 L542.3,373.3 L543.3,373.3 L544.3,373.3  " stroke="rgb(  0,   0, 255)"/></g>
	</g>
<g color="black" fill="none" stroke="currentColor" stroke-linecap="butt" stroke-linejoin="miter" stroke-width="2.00">
</g>
<g color="black" fill="none" stroke="black" stroke-linecap="butt" stroke-linejoin="miter" stroke-width="0.50">
	<path d="M50.2,384.2 L544.3,384.2 M50.2,11.3 L544.3,11.3 M50.2,384.2 L50.2,11.3 M544.3,384.2 L544.3,11.3    " stroke="rgb( 38,  38,  38)"/></g>
<g color="black" fill="none" stroke="rgb( 38,  38,  38)" stroke-linecap="butt" stroke-linejoin="miter" stroke-width="1.00">
</g>
<g color="black" fill="none" stroke="currentColor" stroke-linecap="butt" stroke-linejoin="miter" stroke-width="1.00">
</g>
</g>
</svg>