<svg height="420px" viewBox="0 0 560 420" width="560px" xmlns="http://www.w3.org/2000/svg" xmlns:xlink="http://www.w3.org/1999/xlink">

<title>Gnuplot</title>
<desc>Produced by GNUPLOT 5.2 patchlevel 4 </desc>

<g id="gnuplot_canvas">

<rect fill="#ffffff" height="420" width="560" x="0" y="0"/>
<defs>

	<circle id="gpDot" r="0.5" stroke="currentColor" stroke-width="0.5"/>
	<path d="M-1,0 h2 M0,-1 v2" id="gpPt0" stroke="currentColor" stroke-width="0.357"/>
	<path d="M-1,-1 L1,1 M1,-1 L-1,1" id="gpPt1" stroke="currentColor" stroke-width="0.357"/>
	<path d="M-1,0 L1,0 M0,-1 L0,1 M-1,-1 L1,1 M-1,1 L1,-1" id="gpPt2" stroke="currentColor" stroke-width="0.357"/>
	<rect height="2" id="gpPt3" stroke="currentColor" stroke-width="0.357" width="2" x="-1" y="-1"/>
	<rect fill="currentColor" height="2" id="gpPt4" stroke="currentColor" stroke-width="0.357" width="2" x="-1" y="-1"/>
	<circle cx="0" cy="0" id="gpPt5" r="1" stroke="currentColor" stroke-width="0.357"/>
	<use fill="currentColor" id="gpPt6" stroke="none" xlink:href="#gpPt5"/>
	<path d="M0,-1.33 L-1.33,0.67 L1.33,0.67 z" id="gpPt7" stroke="currentColor" stroke-width="0.357"/>
	<use fill="currentColor" id="gpPt8" stroke="none" xlink:href="#gpPt7"/>
	<use id="gpPt9" stroke="currentColor" transform="rotate(180)" xlink:href="#gpPt7"/>
	<use fill="currentColor" id="gpPt10" stroke="none" xlink:href="#gpPt9"/>
	<use id="gpPt11" stroke="currentColor" transform="rotate(45)" xlink:href="#gpPt3"/>
	<use fill="currentColor" id="gpPt12" stroke="none" xlink:href="#gpPt11"/>
	<path d="M0,1.330 L1.265,0.411 L0.782,-1.067 L-0.782,-1.076 L-1.265,0.411 z" id="gpPt13" stroke="currentColor" stroke-width="0.357"/>
	<use fill="currentColor" id="gpPt14" stroke="none" xlink:href="#gpPt13"/>
	<filter filterUnits="objectBoundingBox" height="1" id="textbox" width="1" x="0" y="0">
	  <feFlood flood-color="#FFFFFF" flood-opacity="1" result="bgnd"/>
	  <feComposite in="SourceGraphic" in2="bgnd" operator="atop"/>
	</filter>
	<filter filterUnits="objectBoundingBox" height="1" id="greybox" width="1" x="0" y="0">
	  <feFlood flood-color="lightgrey" flood-opacity="1" result="grey"/>
	  <feComposite in="SourceGraphic" in2="grey" operator="atop"/>
	</filter>
</defs>
<g color="#FFFFFF" fill="none" stroke="currentColor" stroke-linecap="butt" stroke-linejoin="miter" stroke-width="1.00">
</g>
<g color="black" fill="none" stroke="currentColor" stroke-linecap="butt" stroke-linejoin="miter" stroke-width="1.00">
	<g shape-rendering="crispEdges" stroke="none">
		<polygon fill="rgb(255, 255, 255)" points="34.6,373.0 544.2,373.0 544.2,11.4 34.6,11.4 "/>
	</g>
</g>
<g color="black" fill="none" stroke="currentColor" stroke-linecap="butt" stroke-linejoin="miter" stroke-width="1.00">
	<path d="M34.6,373.0 L42.4,373.0 M544.3,373.0 L536.5,373.0  " stroke="rgb(  0,   0,   0)"/>	<g fill="rgb(38,38,38)" font-family="Arial" font-size="10.00" stroke="none" text-anchor="end" transform="translate(29.4,376.3)">
		<text><tspan font-family="Arial">-1</tspan></text>
	</g>
</g>
<g color="black" fill="none" stroke="currentColor" stroke-linecap="butt" stroke-linejoin="miter" stroke-width="1.00">
	<path d="M34.6,300.7 L42.4,300.7 M544.3,300.7 L536.5,300.7  " stroke="rgb(  0,   0,   0)"/>	<g fill="rgb(38,38,38)" font-family="Arial" font-size="10.00" stroke="none" text-anchor="end" transform="translate(29.4,304.0)">
		<text><tspan font-family="Arial">0</tspan></text>
	</g>
</g>
<g color="black" fill="none" stroke="currentColor" stroke-linecap="butt" stroke-linejoin="miter" stroke-width="1.00">
	<path d="M34.6,228.3 L42.4,228.3 M544.3,228.3 L536.5,228.3  " stroke="rgb(  0,   0,   0)"/>	<g fill="rgb(38,38,38)" font-family="Arial" font-size="10.00" stroke="none" text-anchor="end" transform="translate(29.4,231.6)">
		<text><tspan font-family="Arial">1</tspan></text>
	</g>
</g>
<g color="black" fill="none" stroke="currentColor" stroke-linecap="butt" stroke-linejoin="miter" stroke-width="1.00">
	<path d="M34.6,156.0 L42.4,156.0 M544.3,156.0 L536.5,156.0  " stroke="rgb(  0,   0,   0)"/>	<g fill="rgb(38,38,38)" font-family="Arial" font-size="10.00" stroke="none" text-anchor="end" transform="translate(29.4,159.3)">
		<text><tspan font-family="Arial">2</tspan></text>
	</g>
</g>
<g color="black" fill="none" stroke="currentColor" stroke-linecap="butt" stroke-linejoin="miter" stroke-width="1.00">
	<path d="M34.6,83.6 L42.4,83.6 M544.3,83.6 L536.5,83.6  " stroke="rgb(  0,   0,   0)"/>	<g fill="rgb(38,38,38)" font-family="Arial" font-size="10.00" stroke="none" text-anchor="end" transform="translate(29.4,86.9)">
		<text><tspan font-family="Arial">3</tspan></text>
	</g>
</g>
<g color="black" fill="none" stroke="currentColor" stroke-linecap="butt" stroke-linejoin="miter" stroke-width="1.00">
	<path d="M34.6,11.3 L42.4,11.3 M544.3,11.3 L536.5,11.3  " stroke="rgb(  0,   0,   0)"/>	<g fill="rgb(38,38,38)" font-family="Arial" font-size="10.00" stroke="none" text-anchor="end" transform="translate(29.4,14.6)">
		<text><tspan font-family="Arial">4</tspan></text>
	</g>
</g>
<g color="black" fill="none" stroke="currentColor" stroke-linecap="butt" stroke-linejoin="miter" stroke-width="1.00">
	<path d="M34.6,373.0 L34.6,365.2 M34.6,11.3 L34.6,19.1  " stroke="rgb(  0,   0,   0)"/>	<g fill="rgb(38,38,38)" font-family="Arial" font-size="10.00" stroke="none" text-anchor="middle" transform="translate(34.6,387.5)">
		<text><tspan font-family="Arial">-10</tspan></text>
	</g>
</g>
<g color="black" fill="none" stroke="currentColor" stroke-linecap="butt" stroke-linejoin="miter" stroke-width="1.00">
	<path d="M162.0,373.0 L162.0,365.2 M162.0,11.3 L162.0,19.1  " stroke="rgb(  0,   0,   0)"/>	<g fill="rgb(38,38,38)" font-family="Arial" font-size="10.00" stroke="none" text-anchor="middle" transform="translate(162.0,387.5)">
		<text><tspan font-family="Arial">-5</tspan></text>
	</g>
</g>
<g color="black" fill="none" stroke="currentColor" stroke-linecap="butt" stroke-linejoin="miter" stroke-width="1.00">
	<path d="M289.5,373.0 L289.5,365.2 M289.5,11.3 L289.5,19.1  " stroke="rgb(  0,   0,   0)"/>	<g fill="rgb(38,38,38)" font-family="Arial" font-size="10.00" stroke="none" text-anchor="middle" transform="translate(289.5,387.5)">
		<text><tspan font-family="Arial">0</tspan></text>
	</g>
</g>
<g color="black" fill="none" stroke="currentColor" stroke-linecap="butt" stroke-linejoin="miter" stroke-width="1.00">
	<path d="M416.9,373.0 L416.9,365.2 M416.9,11.3 L416.9,19.1  " stroke="rgb(  0,   0,   0)"/>	<g fill="rgb(38,38,38)" font-family="Arial" font-size="10.00" stroke="none" text-anchor="middle" transform="translate(416.9,387.5)">
		<text><tspan font-family="Arial">5</tspan></text>
	</g>
</g>
<g color="black" fill="none" stroke="currentColor" stroke-linecap="butt" stroke-linejoin="miter" stroke-width="1.00">
	<path d="M544.3,373.0 L544.3,365.2 M544.3,11.3 L544.3,19.1  " stroke="rgb(  0,   0,   0)"/>	<g fill="rgb(38,38,38)" font-family="Arial" font-size="10.00" stroke="none" text-anchor="middle" transform="translate(544.3,387.5)">
		<text><tspan font-family="Arial">10</tspan></text>
	</g>
</g>
<g color="black" fill="none" stroke="currentColor" stroke-linecap="butt" stroke-linejoin="miter" stroke-width="1.00">
</g>
<g color="black" fill="none" stroke="currentColor" stroke-linecap="butt" stroke-linejoin="miter" stroke-width="1.00">
	<g fill="rgb(38,38,38)" font-family="Arial" font-size="11.00" stroke="none" text-anchor="middle" transform="translate(11.3,192.2) rotate(-90)">
		<text><tspan font-family="Symbol">q</tspan><tspan dy="3.30px" font-family="Arial" font-size="8.8">1</tspan><tspan dy="-3.30" font-size="11.0"/></text>
	</g>
</g>
<g color="black" fill="none" stroke="currentColor" stroke-linecap="butt" stroke-linejoin="miter" stroke-width="1.00">
	<g fill="rgb(38,38,38)" font-family="Arial" font-size="11.00" stroke="none" text-anchor="middle" transform="translate(289.4,404.6)">
		<text><tspan font-family="Symbol">q</tspan><tspan dy="3.30px" font-family="Arial" font-size="8.8">0</tspan><tspan dy="-3.30" font-size="11.0"/></text>
	</g>
</g>
<g color="black" fill="none" stroke="currentColor" stroke-linecap="butt" stroke-linejoin="miter" stroke-width="1.00">
</g>
	<g id="gnuplot_plot_1a"><title>gnuplot_plot_1a</title>
<g color="#FFFFFF" fill="none" stroke="currentColor" stroke-linecap="butt" stroke-linejoin="miter" stroke-width="0.50">
</g>
<g color="black" fill="none" stroke="currentColor" stroke-linecap="butt" stroke-linejoin="miter" stroke-width="0.50">
	<path d="M296.4,259.7 L297.2,259.9 L302.3,260.6 L307.5,261.2 L312.6,261.8 L317.8,262.4 L322.9,262.8 L328.1,263.1   L333.2,263.0 L338.4,262.4 L343.5,260.7 L344.8,259.7 L344.4,256.1 L343.5,255.3 L340.9,252.4 L338.4,250.7   L335.9,248.8 L333.2,247.2 L329.9,245.1 L328.1,244.2 L323.1,241.5 L322.9,241.4 L317.8,239.0 L315.6,237.8   L312.6,236.5 L307.6,234.2 L307.5,234.1 L302.3,232.0 L299.0,230.5 L297.2,229.8 L292.0,227.7 L290.0,226.9   L286.9,225.7 L281.7,223.6 L280.6,223.2 L276.6,221.8 L271.4,219.8 L270.9,219.6 L266.3,218.0 L261.1,216.1   L260.7,215.9 L256.0,214.3 L250.8,212.5 L250.2,212.2 L245.7,210.8 L240.5,209.0 L239.3,208.6 L235.4,207.4   L230.2,205.7 L228.0,204.9 L225.1,204.1 L219.9,202.5 L216.3,201.3 L214.8,200.8 L209.6,199.3 L204.5,197.7   L204.2,197.6 L199.4,196.3 L194.2,194.7 L191.6,194.0 L189.1,193.3 L183.9,191.9 L178.8,190.4 L178.7,190.3   L173.6,189.0 L168.5,187.6 L165.0,186.7 L163.3,186.2 L158.2,185.0 L153.0,183.6 L150.7,183.0 L147.9,182.3   L142.7,181.1 L137.6,179.8 L135.6,179.4 L132.4,178.7 L127.3,177.5 L122.1,176.3 L119.4,175.7 L117.0,175.2   L111.8,174.2 L106.7,173.1 L101.5,172.1 L96.4,171.2 L91.2,170.3 L86.1,169.4 L80.9,168.5 L80.2,168.4   L75.8,167.8 L70.6,167.2 L65.5,166.6 L60.3,166.2 L55.2,165.8 L50.0,165.7 L44.9,165.9 L39.7,166.8   L36.0,168.4 L35.7,172.1 L38.7,175.7 L39.7,176.4 L43.5,179.4 L44.9,180.1 L49.4,183.0 L50.0,183.3   L55.2,186.1 L56.1,186.7 L60.3,188.7 L63.6,190.3 L65.5,191.2 L70.6,193.6 L71.5,194.0 L75.8,195.7   L80.0,197.6 L80.9,198.0 L86.1,200.1 L88.9,201.3 L91.2,202.2 L96.4,204.2 L98.2,204.9 L101.5,206.1   L106.7,208.1 L107.9,208.6 L111.8,209.9 L117.0,211.8 L118.0,212.2 L122.1,213.6 L127.3,215.5 L128.5,215.9   L132.4,217.2 L137.6,218.9 L139.4,219.6 L142.7,220.6 L147.9,222.3 L150.6,223.2 L153.0,223.9 L158.2,225.5   L162.2,226.9 L163.3,227.2 L168.5,228.7 L173.6,230.3 L174.2,230.5 L178.8,231.8 L183.9,233.3 L186.7,234.2   L189.1,234.8 L194.2,236.2 L199.4,237.7 L199.6,237.8 L204.5,239.1 L209.6,240.5 L213.2,241.5 L214.8,241.9   L219.9,243.2 L225.1,244.5 L227.3,245.1 L230.2,245.8 L235.4,247.1 L240.5,248.3 L242.3,248.8 L245.7,249.5   L250.8,250.7 L256.0,251.9 L258.3,252.4 L261.1,253.0 L266.3,254.1 L271.4,255.1 L275.9,256.1 L276.6,256.2   L281.7,257.1 L286.9,258.0 L292.0,259.0 L296.4,259.7  " stroke="rgb( 68,   1,  84)"/></g>
	</g>
	<g id="gnuplot_plot_2a"><title>gnuplot_plot_2a</title>
<g color="black" fill="none" stroke="currentColor" stroke-linecap="butt" stroke-linejoin="miter" stroke-width="0.50">
	<path d="M34.6,199.0 L39.7,201.0 L40.6,201.3 L44.9,202.9 L50.0,204.8 L50.4,204.9 L55.2,206.6 L60.3,208.6   L60.4,208.6 L65.5,210.4 L70.6,212.2 L70.7,212.2 L75.8,214.0 L80.9,215.8 L81.2,215.9 L86.1,217.5   L91.2,219.3 L91.9,219.6 L96.4,221.0 L101.5,222.8 L102.8,223.2 L106.7,224.4 L111.8,226.1 L114.0,226.9   L117.0,227.8 L122.1,229.5 L125.3,230.5 L127.3,231.1 L132.4,232.7 L136.9,234.2 L137.6,234.4 L142.7,235.9   L147.9,237.5 L148.7,237.8 L153.0,239.1 L158.2,240.6 L160.8,241.5 L163.3,242.2 L168.5,243.7 L173.1,245.1   L173.6,245.3 L178.8,246.7 L183.9,248.2 L185.8,248.8 L189.1,249.7 L194.2,251.1 L198.6,252.4 L199.4,252.6   L204.5,254.0 L209.6,255.5 L211.8,256.1 L214.8,256.9 L219.9,258.2 L225.1,259.7 L225.3,259.7 L230.2,261.0   L235.4,262.4 L239.3,263.4 L240.5,263.7 L245.7,265.0 L250.8,266.3 L253.6,267.0 L256.0,267.6 L261.1,268.9   L266.3,270.2 L268.3,270.7 L271.4,271.4 L276.6,272.6 L281.7,273.9 L283.6,274.4 L286.9,275.1 L292.0,276.3   L297.2,277.4 L299.6,278.0 L302.3,278.6 L307.5,279.7 L312.6,280.8 L316.3,281.7 L317.8,282.0 L322.9,283.0   L328.1,284.1 L333.2,285.1 L334.1,285.3 L338.4,286.1 L343.5,287.1 L348.7,288.1 L353.4,289.0 L353.8,289.0   L359.0,289.9 L364.1,290.8 L369.3,291.6 L374.4,292.5 L375.2,292.6 L379.5,293.3 L384.7,294.0 L389.8,294.7   L395.0,295.3 L400.1,296.0 L402.9,296.3 L405.3,296.5 L410.4,297.0 L415.6,297.3 L420.7,297.6 L425.9,297.8   L431.0,297.9 L436.2,297.8 L441.3,297.4 L446.5,296.7 L448.4,296.3 L451.6,295.0 L455.1,292.6 L455.9,289.0   L454.2,285.3 L451.6,282.5 L451.0,281.7 L446.7,278.0 L446.5,277.8 L441.7,274.4 L441.3,274.1 L436.2,270.8   L436.0,270.7 L431.0,267.9 L429.7,267.0 L425.9,265.0 L423.0,263.4 L420.7,262.3 L415.9,259.7 L415.6,259.6   L410.4,257.1 L408.4,256.1 L405.3,254.7 L400.6,252.4 L400.1,252.2 L395.0,249.9 L392.5,248.8 L389.8,247.7   L384.7,245.4 L384.1,245.1 L379.5,243.3 L375.4,241.5 L374.4,241.1 L369.3,239.0 L366.5,237.8 L364.1,236.9   L359.0,234.8 L357.3,234.2 L353.8,232.8 L348.7,230.8 L347.9,230.5 L343.5,228.9 L338.4,226.9 L338.3,226.9   L333.2,225.0 L328.4,223.2 L328.1,223.1 L322.9,221.3 L318.3,219.6 L317.8,219.4 L312.6,217.6 L308.0,215.9   L307.5,215.7 L302.3,214.0 L297.5,212.2 L297.2,212.1 L292.0,210.4 L286.9,208.6 L286.8,208.6 L281.7,206.9   L276.6,205.2 L275.8,204.9 L271.4,203.5 L266.3,201.8 L264.6,201.3 L261.1,200.2 L256.0,198.5 L253.2,197.6   L250.8,196.9 L245.7,195.3 L241.6,194.0 L240.5,193.7 L235.4,192.1 L230.2,190.5 L229.7,190.3 L225.1,189.0   L219.9,187.4 L217.6,186.7 L214.8,185.9 L209.6,184.3 L205.2,183.0 L204.5,182.8 L199.4,181.3 L194.2,179.8   L192.6,179.4 L189.1,178.4 L183.9,176.9 L179.7,175.7 L178.8,175.5 L173.6,174.1 L168.5,172.6 L166.4,172.1   L163.3,171.2 L158.2,169.9 L153.0,168.4 L152.8,168.4 L147.9,167.1 L142.7,165.8 L138.9,164.7 L137.6,164.4   L132.4,163.1 L127.3,161.8 L124.5,161.1 L122.1,160.5 L117.0,159.3 L111.8,158.0 L109.6,157.4 L106.7,156.7   L101.5,155.5 L96.4,154.3 L94.3,153.8 L91.2,153.1 L86.1,152.0 L80.9,150.8 L78.2,150.1 L75.8,149.6   L70.6,148.5 L65.5,147.4 L61.3,146.5 L60.3,146.3 L55.2,145.3 L50.0,144.2 L44.9,143.1 L43.3,142.8   L39.7,142.2 L34.6,141.2  " stroke="rgb( 68,   1,  84)"/></g>
	</g>
	<g id="gnuplot_plot_3a"><title>gnuplot_plot_3a</title>
<g color="black" fill="none" stroke="currentColor" stroke-linecap="butt" stroke-linejoin="miter" stroke-width="0.50">
	<path d="M544.3,338.6 L539.2,338.5 L534.0,338.3 L528.9,338.0 L523.7,337.7 L518.6,337.3 L513.4,336.8 L509.6,336.5   L508.3,336.3 L503.1,335.8 L498.0,335.2 L492.8,334.5 L487.7,333.9 L482.5,333.2 L479.5,332.8 L477.4,332.5   L472.2,331.7 L467.1,330.9 L461.9,330.2 L456.8,329.4 L455.5,329.2 L451.6,328.5 L446.5,327.6 L441.3,326.7   L436.2,325.9 L434.2,325.5 L431.0,324.9 L425.9,324.0 L420.7,323.0 L415.6,322.1 L414.5,321.9 L410.4,321.0   L405.3,320.0 L400.1,319.0 L396.0,318.2 L395.0,318.0 L389.8,316.9 L384.7,315.9 L379.5,314.8 L378.3,314.5   L374.4,313.7 L369.3,312.6 L364.1,311.5 L361.4,310.9 L359.0,310.3 L353.8,309.2 L348.7,308.0 L345.1,307.2   L343.5,306.9 L338.4,305.7 L333.2,304.5 L329.3,303.6 L328.1,303.3 L322.9,302.1 L317.8,300.8 L313.9,299.9   L312.6,299.6 L307.5,298.4 L302.3,297.1 L298.8,296.3 L297.2,295.9 L292.0,294.6 L286.9,293.3 L284.2,292.6   L281.7,292.0 L276.6,290.7 L271.4,289.4 L269.8,289.0 L266.3,288.0 L261.1,286.7 L256.0,285.4 L255.7,285.3   L250.8,284.0 L245.7,282.7 L241.9,281.7 L240.5,281.3 L235.4,279.9 L230.2,278.5 L228.3,278.0 L225.1,277.1   L219.9,275.7 L215.0,274.4 L214.8,274.3 L209.6,272.9 L204.5,271.4 L201.8,270.7 L199.4,270.0 L194.2,268.5   L189.1,267.1 L188.9,267.0 L183.9,265.6 L178.8,264.1 L176.2,263.4 L173.6,262.6 L168.5,261.1 L163.6,259.7   L163.3,259.6 L158.2,258.1 L153.0,256.6 L151.3,256.1 L147.9,255.0 L142.7,253.5 L139.1,252.4 L137.6,252.0   L132.4,250.4 L127.3,248.8 L127.1,248.8 L122.1,247.2 L117.0,245.6 L115.3,245.1 L111.8,244.0 L106.7,242.4   L103.6,241.5 L101.5,240.8 L96.4,239.2 L92.0,237.8 L91.2,237.6 L86.1,235.9 L80.9,234.3 L80.6,234.2   L75.8,232.6 L70.6,230.9 L69.4,230.5 L65.5,229.2 L60.3,227.5 L58.4,226.9 L55.2,225.8 L50.0,224.1   L47.4,223.2 L44.9,222.3 L39.7,220.6 L36.6,219.6 L34.6,218.8  " stroke="rgb( 71,  13,  96)"/></g>
	</g>
	<g id="gnuplot_plot_4a"><title>gnuplot_plot_4a</title>
<g color="black" fill="none" stroke="currentColor" stroke-linecap="butt" stroke-linejoin="miter" stroke-width="0.50">
	<path d="M544.3,291.6 L539.5,289.0 L539.2,288.8 L534.0,286.1 L532.6,285.3 L528.9,283.5 L525.4,281.7 L523.7,280.8   L518.6,278.3 L518.0,278.0 L513.4,275.9 L510.3,274.4 L508.3,273.4 L503.1,271.0 L502.4,270.7 L498.0,268.7   L494.3,267.0 L492.8,266.4 L487.7,264.1 L486.1,263.4 L482.5,261.9 L477.6,259.7 L477.4,259.6 L472.2,257.5   L468.9,256.1 L467.1,255.3 L461.9,253.2 L460.1,252.4 L456.8,251.1 L451.6,249.0 L451.1,248.8 L446.5,246.9   L442.0,245.1 L441.3,244.9 L436.2,242.9 L432.7,241.5 L431.0,240.9 L425.9,238.9 L423.2,237.8 L420.7,236.9   L415.6,234.9 L413.6,234.2 L410.4,233.0 L405.3,231.1 L403.8,230.5 L400.1,229.2 L395.0,227.3 L393.9,226.9   L389.8,225.4 L384.7,223.5 L383.8,223.2 L379.5,221.7 L374.4,219.9 L373.6,219.6 L369.3,218.1 L364.1,216.2   L363.2,215.9 L359.0,214.4 L353.8,212.6 L352.7,212.2 L348.7,210.9 L343.5,209.1 L342.0,208.6 L338.4,207.4   L333.2,205.6 L331.2,204.9 L328.1,203.9 L322.9,202.2 L320.3,201.3 L317.8,200.5 L312.6,198.8 L309.2,197.6   L307.5,197.1 L302.3,195.4 L297.9,194.0 L297.2,193.7 L292.0,192.1 L286.9,190.4 L286.5,190.3 L281.7,188.8   L276.6,187.2 L274.9,186.7 L271.4,185.6 L266.3,184.0 L263.2,183.0 L261.1,182.4 L256.0,180.8 L251.4,179.4   L250.8,179.2 L245.7,177.7 L240.5,176.1 L239.3,175.7 L235.4,174.5 L230.2,173.0 L227.1,172.1 L225.1,171.5   L219.9,170.0 L214.8,168.4 L214.7,168.4 L209.6,166.9 L204.5,165.4 L202.2,164.7 L199.4,164.0 L194.2,162.5   L189.4,161.1 L189.1,161.0 L183.9,159.6 L178.8,158.1 L176.5,157.4 L173.6,156.7 L168.5,155.2 L163.3,153.8   L158.2,152.4 L153.0,151.0 L149.9,150.1 L147.9,149.6 L142.7,148.2 L137.6,146.8 L136.3,146.5 L132.4,145.5   L127.3,144.1 L122.5,142.8 L122.1,142.7 L117.0,141.4 L111.8,140.1 L108.3,139.2 L106.7,138.8 L101.5,137.5   L96.4,136.2 L93.9,135.5 L91.2,134.9 L86.1,133.6 L80.9,132.3 L79.2,131.9 L75.8,131.1 L70.6,129.8   L65.5,128.6 L64.1,128.2 L60.3,127.3 L55.2,126.1 L50.0,124.9 L48.6,124.6 L44.9,123.7 L39.7,122.5   L34.6,121.3  " stroke="rgb( 71,  13,  96)"/></g>
	</g>
	<g id="gnuplot_plot_5a"><title>gnuplot_plot_5a</title>
<g color="black" fill="none" stroke="currentColor" stroke-linecap="butt" stroke-linejoin="miter" stroke-width="0.50">
	<path d="M543.0,373.0 L539.2,372.3 L534.0,371.4 L528.9,370.5 L523.7,369.5 L522.7,369.3 L518.6,368.6 L513.4,367.6   L508.3,366.6 L503.4,365.7 L503.1,365.6 L498.0,364.6 L492.8,363.6 L487.7,362.6 L485.0,362.0 L482.5,361.5   L477.4,360.5 L472.2,359.4 L467.1,358.4 L461.9,357.3 L456.8,356.2 L451.6,355.1 L449.8,354.7 L446.5,354.0   L441.3,352.9 L436.2,351.8 L433.0,351.1 L431.0,350.6 L425.9,349.5 L420.7,348.4 L416.5,347.4 L415.6,347.2   L410.4,346.0 L405.3,344.9 L400.5,343.8 L400.1,343.7 L395.0,342.5 L389.8,341.3 L384.8,340.1 L384.7,340.1   L379.5,338.9 L374.4,337.7 L369.3,336.5 L369.3,336.4 L364.1,335.2 L359.0,333.9 L354.2,332.8 L353.8,332.7   L348.7,331.4 L343.5,330.2 L339.3,329.2 L338.4,328.9 L333.2,327.6 L328.1,326.3 L324.7,325.5 L322.9,325.1   L317.8,323.7 L312.6,322.5 L310.2,321.9 L307.5,321.1 L302.3,319.8 L297.2,318.5 L296.0,318.2 L292.0,317.2   L286.9,315.8 L282.0,314.5 L281.7,314.5 L276.6,313.1 L271.4,311.8 L268.1,310.9 L266.3,310.4 L261.1,309.0   L256.0,307.6 L254.5,307.2 L250.8,306.2 L245.7,304.8 L241.0,303.6 L240.5,303.5 L235.4,302.0 L230.2,300.6   L227.6,299.9 L225.1,299.2 L219.9,297.8 L214.8,296.4 L214.4,296.3 L209.6,294.9 L204.5,293.5 L201.4,292.6   L199.4,292.0 L194.2,290.6 L189.1,289.1 L188.5,289.0 L183.9,287.6 L178.8,286.2 L175.8,285.3 L173.6,284.7   L168.5,283.2 L163.3,281.7 L163.1,281.7 L158.2,280.2 L153.0,278.7 L150.7,278.0 L147.9,277.2 L142.7,275.7   L138.3,274.4 L137.6,274.1 L132.4,272.6 L127.3,271.1 L126.0,270.7 L122.1,269.5 L117.0,268.0 L113.9,267.0   L111.8,266.4 L106.7,264.8 L101.9,263.4 L101.5,263.3 L96.4,261.7 L91.2,260.1 L90.0,259.7 L86.1,258.5   L80.9,256.9 L78.3,256.1 L75.8,255.3 L70.6,253.7 L66.6,252.4 L65.5,252.1 L60.3,250.4 L55.2,248.8   L55.1,248.8 L50.0,247.2 L44.9,245.5 L43.6,245.1 L39.7,243.9 L34.6,242.2  " stroke="rgb( 72,  24, 107)"/></g>
	</g>
	<g id="gnuplot_plot_6a"><title>gnuplot_plot_6a</title>
<g color="black" fill="none" stroke="currentColor" stroke-linecap="butt" stroke-linejoin="miter" stroke-width="0.50">
	<path d="M544.3,257.0 L542.0,256.1 L539.2,255.0 L534.0,253.0 L532.6,252.4 L528.9,251.0 L523.7,249.0 L523.2,248.8   L518.6,247.0 L513.6,245.1 L513.4,245.1 L508.3,243.1 L503.9,241.5 L503.1,241.2 L498.0,239.3 L494.1,237.8   L492.8,237.3 L487.7,235.4 L484.3,234.2 L482.5,233.5 L477.4,231.7 L474.3,230.5 L472.2,229.8 L467.1,227.9   L464.2,226.9 L461.9,226.1 L456.8,224.2 L454.0,223.2 L451.6,222.4 L446.5,220.6 L443.7,219.6 L441.3,218.7   L436.2,216.9 L433.2,215.9 L431.0,215.1 L425.9,213.4 L422.7,212.2 L420.7,211.6 L415.6,209.8 L412.1,208.6   L410.4,208.0 L405.3,206.3 L401.4,204.9 L400.1,204.5 L395.0,202.8 L390.6,201.3 L389.8,201.0 L384.7,199.3   L379.7,197.6 L379.5,197.6 L374.4,195.9 L369.3,194.2 L368.6,194.0 L364.1,192.5 L359.0,190.8 L357.5,190.3   L353.8,189.1 L348.7,187.5 L346.3,186.7 L343.5,185.8 L338.4,184.1 L334.9,183.0 L333.2,182.5 L328.1,180.8   L323.5,179.4 L322.9,179.2 L317.8,177.6 L312.6,175.9 L311.9,175.7 L307.5,174.3 L302.3,172.7 L300.2,172.1   L297.2,171.1 L292.0,169.5 L288.4,168.4 L286.9,167.9 L281.7,166.4 L276.6,164.8 L276.6,164.7 L271.4,163.2   L266.3,161.6 L264.5,161.1 L261.1,160.1 L256.0,158.5 L252.4,157.4 L250.8,157.0 L245.7,155.5 L240.5,153.9   L240.1,153.8 L235.4,152.4 L230.2,150.9 L227.7,150.1 L225.1,149.4 L219.9,147.9 L215.2,146.5 L214.8,146.4   L209.6,144.9 L204.5,143.4 L202.6,142.8 L199.4,141.9 L194.2,140.4 L189.8,139.2 L189.1,139.0 L183.9,137.5   L178.8,136.0 L176.9,135.5 L173.6,134.6 L168.5,133.2 L163.9,131.9 L163.3,131.7 L158.2,130.3 L153.0,128.9   L150.6,128.2 L147.9,127.5 L142.7,126.1 L137.6,124.6 L137.3,124.6 L132.4,123.3 L127.3,121.9 L123.7,120.9   L122.1,120.5 L117.0,119.1 L111.8,117.7 L110.1,117.3 L106.7,116.4 L101.5,115.0 L96.4,113.6 L96.2,113.6   L91.2,112.3 L86.1,111.0 L82.1,109.9 L80.9,109.6 L75.8,108.3 L70.6,107.0 L67.9,106.3 L65.5,105.7   L60.3,104.4 L55.2,103.1 L53.4,102.6 L50.0,101.8 L44.9,100.5 L39.7,99.2 L38.7,99.0 L34.6,98.0    " stroke="rgb( 72,  24, 107)"/></g>
	</g>
	<g id="gnuplot_plot_7a"><title>gnuplot_plot_7a</title>
<g color="black" fill="none" stroke="currentColor" stroke-linecap="butt" stroke-linejoin="miter" stroke-width="0.50">
	<path d="M395.3,373.0 L395.0,372.9 L389.8,371.6 L384.7,370.4 L380.6,369.3 L379.5,369.1 L374.4,367.8 L369.3,366.5   L366.1,365.7 L364.1,365.2 L359.0,363.9 L353.8,362.6 L351.8,362.0 L348.7,361.2 L343.5,359.9 L338.4,358.6   L337.6,358.4 L333.2,357.2 L328.1,355.9 L323.5,354.7 L322.9,354.6 L317.8,353.2 L312.6,351.9 L309.6,351.1   L307.5,350.5 L302.3,349.1 L297.2,347.8 L295.8,347.4 L292.0,346.4 L286.9,345.0 L282.1,343.8 L281.7,343.7   L276.6,342.3 L271.4,340.9 L268.6,340.1 L266.3,339.5 L261.1,338.1 L256.0,336.7 L255.1,336.5 L250.8,335.3   L245.7,333.9 L241.8,332.8 L240.5,332.5 L235.4,331.0 L230.2,329.6 L228.6,329.2 L225.1,328.2 L219.9,326.7   L215.5,325.5 L214.8,325.3 L209.6,323.8 L204.5,322.4 L202.5,321.9 L199.4,320.9 L194.2,319.5 L189.6,318.2   L189.1,318.0 L183.9,316.5 L178.8,315.1 L176.9,314.5 L173.6,313.6 L168.5,312.1 L164.2,310.9 L163.3,310.6   L158.2,309.1 L153.0,307.6 L151.6,307.2 L147.9,306.1 L142.7,304.6 L139.1,303.6 L137.6,303.1 L132.4,301.6   L127.3,300.1 L126.7,299.9 L122.1,298.6 L117.0,297.0 L114.4,296.3 L111.8,295.5 L106.7,294.0 L102.1,292.6   L101.5,292.4 L96.4,290.9 L91.2,289.3 L90.0,289.0 L86.1,287.8 L80.9,286.2 L77.9,285.3 L75.8,284.7   L70.6,283.1 L66.0,281.7 L65.5,281.5 L60.3,279.9 L55.2,278.3 L54.1,278.0 L50.0,276.7 L44.9,275.2   L42.3,274.4 L39.7,273.6 L34.6,271.9  " stroke="rgb( 70,  50, 127)"/></g>
	</g>
	<g id="gnuplot_plot_8a"><title>gnuplot_plot_8a</title>
<g color="black" fill="none" stroke="currentColor" stroke-linecap="butt" stroke-linejoin="miter" stroke-width="0.50">
	<path d="M544.3,222.6 L539.2,220.8 L535.6,219.6 L534.0,219.0 L528.9,217.2 L525.1,215.9 L523.7,215.4 L518.6,213.6   L514.6,212.2 L513.4,211.8 L508.3,210.1 L504.0,208.6 L503.1,208.3 L498.0,206.5 L493.4,204.9 L492.8,204.7   L487.7,203.0 L482.7,201.3 L482.5,201.2 L477.4,199.5 L472.2,197.8 L471.8,197.6 L467.1,196.0 L461.9,194.3   L461.0,194.0 L456.8,192.6 L451.6,190.9 L450.0,190.3 L446.5,189.2 L441.3,187.5 L439.0,186.7 L436.2,185.8   L431.0,184.1 L427.9,183.0 L425.9,182.4 L420.7,180.7 L416.7,179.4 L415.6,179.0 L410.4,177.3 L405.4,175.7   L405.3,175.7 L400.1,174.0 L395.0,172.4 L394.1,172.1 L389.8,170.7 L384.7,169.1 L382.7,168.4 L379.5,167.4   L374.4,165.8 L371.2,164.7 L369.3,164.1 L364.1,162.5 L359.6,161.1 L359.0,160.9 L353.8,159.3 L348.7,157.7   L348.0,157.4 L343.5,156.1 L338.4,154.5 L336.2,153.8 L333.2,152.9 L328.1,151.3 L324.4,150.1 L322.9,149.7   L317.8,148.1 L312.6,146.5 L312.5,146.5 L307.5,145.0 L302.3,143.4 L300.5,142.8 L297.2,141.8 L292.0,140.3   L288.5,139.2 L286.9,138.7 L281.7,137.2 L276.6,135.6 L276.3,135.5 L271.4,134.1 L266.3,132.5 L264.1,131.9   L261.1,131.0 L256.0,129.5 L251.7,128.2 L250.8,128.0 L245.7,126.4 L240.5,124.9 L239.3,124.6 L235.4,123.4   L230.2,121.9 L226.8,120.9 L225.1,120.4 L219.9,118.9 L214.8,117.4 L214.2,117.3 L209.6,116.0 L204.5,114.5   L201.5,113.6 L199.4,113.0 L194.2,111.5 L189.1,110.1 L188.7,109.9 L183.9,108.6 L178.8,107.1 L175.8,106.3   L173.6,105.7 L168.5,104.2 L163.3,102.8 L162.8,102.6 L158.2,101.4 L153.0,99.9 L149.7,99.0 L147.9,98.5   L142.7,97.1 L137.6,95.6 L136.4,95.3 L132.4,94.2 L127.3,92.8 L123.1,91.7 L122.1,91.4 L117.0,90.0   L111.8,88.6 L109.7,88.0 L106.7,87.2 L101.5,85.8 L96.4,84.4 L96.1,84.4 L91.2,83.1 L86.1,81.7   L82.4,80.7 L80.9,80.3 L75.8,79.0 L70.6,77.6 L68.6,77.1 L65.5,76.3 L60.3,74.9 L55.2,73.6   L54.6,73.4 L50.0,72.2 L44.9,70.9 L40.6,69.8 L39.7,69.5 L34.6,68.2  " stroke="rgb( 70,  50, 127)"/></g>
	</g>
	<g id="gnuplot_plot_9a"><title>gnuplot_plot_9a</title>
<g color="black" fill="none" stroke="currentColor" stroke-linecap="butt" stroke-linejoin="miter" stroke-width="0.50">
	<path d="M247.7,373.0 L245.7,372.4 L240.5,371.0 L235.4,369.6 L234.6,369.3 L230.2,368.1 L225.1,366.7 L221.5,365.7   L219.9,365.3 L214.8,363.8 L209.6,362.4 L208.5,362.0 L204.5,360.9 L199.4,359.4 L195.6,358.4 L194.2,358.0   L189.1,356.5 L183.9,355.1 L182.8,354.7 L178.8,353.6 L173.6,352.1 L170.0,351.1 L168.5,350.6 L163.3,349.1   L158.2,347.7 L157.3,347.4 L153.0,346.2 L147.9,344.7 L144.7,343.8 L142.7,343.2 L137.6,341.7 L132.4,340.2   L132.2,340.1 L127.3,338.7 L122.1,337.2 L119.7,336.5 L117.0,335.7 L111.8,334.1 L107.3,332.8 L106.7,332.6   L101.5,331.1 L96.4,329.6 L94.9,329.2 L91.2,328.1 L86.1,326.5 L82.6,325.5 L80.9,325.0 L75.8,323.5   L70.6,321.9 L70.4,321.9 L65.5,320.4 L60.3,318.8 L58.2,318.2 L55.2,317.3 L50.0,315.7 L46.2,314.5   L44.9,314.2 L39.7,312.6 L34.6,311.0  " stroke="rgb( 54,  92, 141)"/></g>
	</g>
	<g id="gnuplot_plot_10a"><title>gnuplot_plot_10a</title>
<g color="black" fill="none" stroke="currentColor" stroke-linecap="butt" stroke-linejoin="miter" stroke-width="0.50">
	<path d="M544.3,180.8 L540.0,179.4 L539.2,179.1 L534.0,177.4 L528.9,175.7 L523.7,174.0 L518.6,172.3 L517.8,172.1   L513.4,170.6 L508.3,168.9 L506.6,168.4 L503.1,167.3 L498.0,165.6 L495.4,164.7 L492.8,163.9 L487.7,162.2   L484.1,161.1 L482.5,160.6 L477.4,158.9 L472.8,157.4 L472.2,157.3 L467.1,155.6 L461.9,153.9 L461.4,153.8   L456.8,152.3 L451.6,150.7 L450.0,150.1 L446.5,149.0 L441.3,147.4 L438.5,146.5 L436.2,145.8 L431.0,144.1   L426.9,142.8 L425.9,142.5 L420.7,140.9 L415.6,139.3 L415.3,139.2 L410.4,137.7 L405.3,136.0 L403.6,135.5   L400.1,134.4 L395.0,132.8 L391.9,131.9 L389.8,131.2 L384.7,129.6 L380.1,128.2 L379.5,128.0 L374.4,126.5   L369.3,124.9 L368.2,124.6 L364.1,123.3 L359.0,121.7 L356.3,120.9 L353.8,120.1 L348.7,118.6 L344.3,117.3   L343.5,117.0 L338.4,115.4 L333.2,113.9 L332.3,113.6 L328.1,112.3 L322.9,110.8 L320.2,109.9 L317.8,109.2   L312.6,107.7 L308.0,106.3 L307.5,106.1 L302.3,104.6 L297.2,103.1 L295.8,102.6 L292.0,101.5 L286.9,100.0   L283.5,99.0 L281.7,98.5 L276.6,96.9 L271.4,95.4 L271.2,95.3 L266.3,93.9 L261.1,92.4 L258.7,91.7   L256.0,90.9 L250.8,89.4 L246.2,88.0 L245.7,87.9 L240.5,86.4 L235.4,84.9 L233.7,84.4 L230.2,83.4   L225.1,81.9 L221.0,80.7 L219.9,80.4 L214.8,78.9 L209.6,77.4 L208.3,77.1 L204.5,76.0 L199.4,74.5   L195.6,73.4 L194.2,73.0 L189.1,71.6 L183.9,70.1 L182.7,69.8 L178.8,68.6 L173.6,67.2 L169.8,66.1   L168.5,65.7 L163.3,64.3 L158.2,62.8 L156.8,62.4 L153.0,61.4 L147.9,60.0 L143.7,58.8 L142.7,58.5   L137.6,57.1 L132.4,55.7 L130.6,55.1 L127.3,54.2 L122.1,52.8 L117.3,51.5 L117.0,51.4 L111.8,50.0   L106.7,48.6 L104.0,47.8 L101.5,47.2 L96.4,45.8 L91.2,44.3 L90.6,44.2 L86.1,43.0 L80.9,41.6   L77.1,40.5 L75.8,40.2 L70.6,38.8 L65.5,37.4 L63.6,36.9 L60.3,36.0 L55.2,34.6 L50.0,33.3   L49.9,33.2 L44.9,31.9 L39.7,30.5 L36.2,29.6 L34.6,29.2  " stroke="rgb( 54,  92, 141)"/></g>
	</g>
	<g id="gnuplot_plot_11a"><title>gnuplot_plot_11a</title>
<g color="black" fill="none" stroke="currentColor" stroke-linecap="butt" stroke-linejoin="miter" stroke-width="0.50">
	<path d="M67.9,373.0 L65.5,372.3 L60.3,370.8 L55.5,369.3 L55.2,369.2 L50.0,367.7 L44.9,366.2 L43.3,365.7   L39.7,364.6 L34.6,363.1  " stroke="rgb( 31, 154, 138)"/></g>
	</g>
	<g id="gnuplot_plot_12a"><title>gnuplot_plot_12a</title>
<g color="black" fill="none" stroke="currentColor" stroke-linecap="butt" stroke-linejoin="miter" stroke-width="0.50">
	<path d="M158.7,11.3 L163.3,12.6 L168.5,14.1 L171.6,15.0 L173.6,15.5 L178.8,17.0 L183.9,18.4 L184.5,18.6   L189.1,19.9 L194.2,21.4 L197.3,22.3 L199.4,22.8 L204.5,24.3 L209.6,25.8 L210.1,25.9 L214.8,27.3   L219.9,28.7 L222.9,29.6 L225.1,30.2 L230.2,31.7 L235.4,33.2 L235.5,33.2 L240.5,34.7 L245.7,36.2   L248.2,36.9 L250.8,37.7 L256.0,39.1 L260.8,40.5 L261.1,40.6 L266.3,42.1 L271.4,43.6 L273.3,44.2   L276.6,45.2 L281.7,46.7 L285.8,47.8 L286.9,48.2 L292.0,49.7 L297.2,51.2 L298.2,51.5 L302.3,52.7   L307.5,54.2 L310.6,55.1 L312.6,55.8 L317.8,57.3 L322.9,58.8 L328.1,60.3 L333.2,61.9 L335.2,62.4   L338.4,63.4 L343.5,64.9 L347.4,66.1 L348.7,66.5 L353.8,68.0 L359.0,69.6 L359.6,69.8 L364.1,71.1   L369.3,72.7 L371.7,73.4 L374.4,74.2 L379.5,75.8 L383.8,77.1 L384.7,77.3 L389.8,78.9 L395.0,80.5   L395.9,80.7 L400.1,82.0 L405.3,83.6 L407.9,84.4 L410.4,85.2 L415.6,86.7 L419.8,88.0 L420.7,88.3   L425.9,89.9 L431.0,91.5 L431.7,91.7 L436.2,93.0 L441.3,94.6 L443.6,95.3 L446.5,96.2 L451.6,97.8   L455.4,99.0 L456.8,99.4 L461.9,101.0 L467.1,102.6 L467.2,102.6 L472.2,104.2 L477.4,105.8 L478.9,106.3   L482.5,107.4 L487.7,109.0 L490.6,109.9 L492.8,110.6 L498.0,112.2 L502.3,113.6 L503.1,113.9 L508.3,115.5   L513.4,117.1 L513.9,117.3 L518.6,118.7 L523.7,120.4 L525.5,120.9 L528.9,122.0 L534.0,123.6 L537.0,124.6   L539.2,125.3 L544.3,126.9  " stroke="rgb( 31, 154, 138)"/></g>
	</g>
	<g id="gnuplot_plot_13a"><title>gnuplot_plot_13a</title>
<g color="black" fill="none" stroke="currentColor" stroke-linecap="butt" stroke-linejoin="miter" stroke-width="0.50">
	<path d="M398.3,11.3 L400.1,11.9 L405.3,13.4 L410.4,14.9 L410.5,15.0 L415.6,16.5 L420.7,18.0 L422.7,18.6   L425.9,19.6 L431.0,21.1 L434.8,22.3 L436.2,22.7 L441.3,24.2 L446.5,25.8 L446.9,25.9 L451.6,27.3   L456.8,28.9 L459.0,29.6 L461.9,30.5 L467.1,32.0 L471.0,33.2 L472.2,33.6 L477.4,35.2 L482.5,36.7   L483.0,36.9 L487.7,38.3 L492.8,39.9 L495.0,40.5 L498.0,41.4 L503.1,43.0 L506.9,44.2 L508.3,44.6   L513.4,46.2 L518.6,47.7 L518.8,47.8 L523.7,49.3 L528.9,50.9 L530.7,51.5 L534.0,52.5 L539.2,54.1   L542.6,55.1 L544.3,55.7  " stroke="rgb(253, 231,  37)"/></g>
	</g>
	<g id="gnuplot_plot_14a"><title>gnuplot_plot_14a</title>
<g color="#FFFFFF" fill="none" stroke="rgb(253, 231,  37)" stroke-linecap="butt" stroke-linejoin="miter" stroke-width="2.00">
</g>
<g color="black" fill="none" stroke="currentColor" stroke-linecap="butt" stroke-linejoin="miter" stroke-width="2.00">
	<use color="rgb(255,   0,   0)" transform="translate(196.9,216.3) scale(9.33)" xlink:href="#gpPt1"/>
</g>
	</g>
<g color="black" fill="none" stroke="currentColor" stroke-linecap="butt" stroke-linejoin="miter" stroke-width="2.00">
</g>
<g color="black" fill="none" stroke="black" stroke-linecap="butt" stroke-linejoin="miter" stroke-width="0.50">
	<path d="M34.6,373.0 L544.3,373.0 M34.6,11.3 L544.3,11.3 M34.6,373.0 L34.6,11.3 M544.3,373.0 L544.3,11.3    " stroke="rgb( 38,  38,  38)"/></g>
<g color="black" fill="none" stroke="rgb( 38,  38,  38)" stroke-linecap="butt" stroke-linejoin="miter" stroke-width="1.00">
</g>
<g color="black" fill="none" stroke="currentColor" stroke-linecap="butt" stroke-linejoin="miter" stroke-width="1.00">
</g>
</g>
</svg>